<svg width="13" height="13" viewBox="0 0 13 13" fill="none" xmlns="http://www.w3.org/2000/svg">
<path d="M7.15024 5.85V2.6C7.15024 2.42761 7.08176 2.26228 6.95986 2.14038C6.83796 2.01848 6.67263 1.95 6.50024 1.95C6.32785 1.95 6.16252 2.01848 6.04062 2.14038C5.91873 2.26228 5.85024 2.42761 5.85024 2.6V6.5C5.85024 6.67239 5.91873 6.83772 6.04062 6.95962C6.16252 7.08152 6.32785 7.15 6.50024 7.15H9.75024C9.92264 7.15 10.088 7.08152 10.2099 6.95962C10.3318 6.83772 10.4002 6.67239 10.4002 6.5C10.4002 6.32761 10.3318 6.16228 10.2099 6.04038C10.088 5.91848 9.92264 5.85 9.75024 5.85H7.15024ZM6.50024 13C2.91029 13 0.000244141 10.0899 0.000244141 6.5C0.000244141 2.91005 2.91029 0 6.50024 0C10.0902 0 13.0002 2.91005 13.0002 6.5C13.0002 10.0899 10.0902 13 6.50024 13Z" fill="#27AE60"/>
</svg>
