<svg width="12" height="14" viewBox="0 0 12 14" fill="none" xmlns="http://www.w3.org/2000/svg">
<path d="M10.2428 11.8676C9.11754 12.9928 7.59139 13.625 6.00007 13.625C4.40876 13.625 2.88261 12.9928 1.75738 11.8676C0.632149 10.7424 1.18562e-08 9.21622 0 7.6249C-1.18562e-08 6.03358 0.632149 4.50744 1.75738 3.38221C1.75738 3.38221 2.25012 4.62494 3.7501 5.37493C3.7501 3.87495 4.1251 1.62498 5.98957 0.125C7.50005 1.62498 9.06753 2.20772 10.242 3.38221C10.8001 3.93869 11.2427 4.6 11.5444 5.3281C11.8461 6.05621 12.0009 6.83676 12 7.6249C12.001 8.41298 11.8463 9.19351 11.5448 9.92161C11.2432 10.6497 10.8007 11.311 10.2428 11.8676Z" fill="#F2C94C"/>
<path d="M4.40936 9.96562C4.67065 10.227 4.99229 10.42 5.34587 10.5275C5.69945 10.635 6.07407 10.6538 6.43662 10.5822C6.79918 10.5105 7.13851 10.3507 7.42463 10.1168C7.71075 9.88289 7.93485 9.5821 8.07712 9.24102C8.21939 8.89993 8.27545 8.52906 8.24034 8.16116C8.20524 7.79327 8.08006 7.43968 7.87586 7.13165C7.67165 6.82363 7.39472 6.57064 7.06953 6.39506C6.74434 6.21947 6.3809 6.1267 6.01134 6.12492L5.2501 8.37489H3.75012C3.75012 8.95089 3.96987 9.52688 4.40936 9.96562Z" fill="white"/>
</svg>
