<svg width="24" height="24" viewBox="0 0 24 24" fill="none" xmlns="http://www.w3.org/2000/svg">
<path d="M12.0001 16.8C14.651 16.8 16.8001 14.6509 16.8001 12C16.8001 9.34901 14.651 7.19998 12.0001 7.19998C9.34911 7.19998 7.20007 9.34901 7.20007 12C7.20007 14.6509 9.34911 16.8 12.0001 16.8Z" fill="#3C3D46"/>
<path d="M13.2 2.4828V0H10.8V2.4828C8.68836 2.75242 6.72596 3.71541 5.22068 5.22068C3.71541 6.72596 2.75242 8.68836 2.4828 10.8H0V13.2H2.4828C2.75202 15.3118 3.71488 17.2744 5.22024 18.7798C6.72559 20.2851 8.6882 21.248 10.8 21.5172V24H13.2V21.5172C15.3119 21.2482 17.2746 20.2854 18.78 18.78C20.2854 17.2746 21.2482 15.3119 21.5172 13.2H24V10.8H21.5172C21.248 8.6882 20.2851 6.72559 18.7798 5.22024C17.2744 3.71488 15.3118 2.75202 13.2 2.4828ZM12 19.2C8.0292 19.2 4.8 15.9708 4.8 12C4.8 8.0292 8.0292 4.8 12 4.8C15.9708 4.8 19.2 8.0292 19.2 12C19.2 15.9708 15.9708 19.2 12 19.2Z" fill="#3C3D46"/>
</svg>
