<svg width="19" height="16" viewBox="0 0 19 16" fill="none" xmlns="http://www.w3.org/2000/svg">
<path d="M8.58081 1.5083L9.28781 2.2163L9.99481 1.5093C10.4584 1.04167 11.0097 0.670204 11.6172 0.416229C12.2247 0.162253 12.8764 0.0307706 13.5348 0.0293287C14.1933 0.0278869 14.8455 0.156514 15.4541 0.407827C16.0628 0.659139 16.6157 1.02819 17.0813 1.49378C17.5469 1.95938 17.916 2.51235 18.1673 3.12096C18.4186 3.72956 18.5472 4.38181 18.5458 5.04027C18.5443 5.69872 18.4129 6.3504 18.1589 6.9579C17.9049 7.5654 17.5334 8.11675 17.0658 8.5803L9.99581 15.6513C9.90293 15.7443 9.79264 15.818 9.67125 15.8684C9.54985 15.9187 9.41972 15.9446 9.28831 15.9446C9.15689 15.9446 9.02676 15.9187 8.90537 15.8684C8.78397 15.818 8.67368 15.7443 8.58081 15.6513L1.50981 8.5803C1.03582 8.11824 0.658293 7.56666 0.399135 6.95756C0.139977 6.34846 0.00434372 5.69396 0.000102636 5.03203C-0.00413845 4.37011 0.123097 3.71393 0.374429 3.10155C0.625761 2.48918 0.996186 1.93281 1.46422 1.46472C1.93225 0.99662 2.48856 0.626116 3.1009 0.374698C3.71324 0.123279 4.3694 -0.00404932 5.03133 9.81545e-05C5.69326 0.00424563 6.34777 0.139787 6.95691 0.398858C7.56605 0.65793 8.11768 1.03538 8.57981 1.5093L8.58081 1.5083Z" fill="white"/>
</svg>
