<svg width="19" height="16" viewBox="0 0 19 16" fill="none" xmlns="http://www.w3.org/2000/svg">
<path d="M2.99541 7.19166L9.51528 13.5782L16.0351 7.19166C16.6116 6.62701 16.9354 5.86118 16.9354 5.06265C16.9354 4.26412 16.6116 3.49829 16.0351 2.93364C15.4587 2.369 14.6769 2.05178 13.8617 2.05178C13.0465 2.05178 12.2647 2.369 11.6882 2.93364L9.51528 5.06215L7.34233 2.93465C6.76443 2.37758 5.98521 2.06676 5.17442 2.0699C4.36362 2.07304 3.58694 2.38988 3.01355 2.95141C2.44016 3.51294 2.11652 4.27366 2.11312 5.06788C2.10972 5.86209 2.42685 6.62544 2.99541 7.19166ZM8.79096 1.51364L9.51528 2.22314L10.2396 1.51364C10.7145 1.04435 11.2794 0.671572 11.9017 0.416698C12.5241 0.161824 13.1918 0.029876 13.8663 0.0284291C14.5409 0.0269821 15.2091 0.156065 15.8326 0.408266C16.4562 0.660468 17.0227 1.03082 17.4997 1.49806C17.9767 1.96531 18.3548 2.52024 18.6122 3.131C18.8697 3.74176 19.0015 4.39632 19 5.0571C18.9985 5.71788 18.8638 6.37186 18.6036 6.98151C18.3434 7.59116 17.9629 8.14446 17.4838 8.60966L10.2406 15.7057C10.1455 15.799 10.0325 15.873 9.90811 15.9235C9.78374 15.974 9.65042 16 9.51579 16C9.38115 16 9.24784 15.974 9.12347 15.9235C8.9991 15.873 8.88611 15.799 8.79096 15.7057L1.54678 8.61066C1.06119 8.14696 0.674416 7.59343 0.408911 6.98218C0.143405 6.37092 0.00445011 5.71411 0.000105149 5.04984C-0.00423981 4.38557 0.126112 3.72707 0.383599 3.11253C0.641087 2.49799 1.02058 1.93965 1.50008 1.4699C1.97957 1.00015 2.54951 0.628331 3.17685 0.376023C3.80418 0.123715 4.47641 -0.00406364 5.15455 9.85018e-05C5.83269 0.00426065 6.50324 0.140281 7.12729 0.40027C7.75135 0.660258 8.31649 1.03904 8.78994 1.51464L8.79096 1.51364Z" fill="#999898"/>
</svg>
