<svg width="33" height="22" viewBox="0 0 33 22" fill="none" xmlns="http://www.w3.org/2000/svg">
<path d="M5.61538 21C8.16439 21 10.2308 18.9336 10.2308 16.3846C10.2308 13.8356 8.16439 11.7692 5.61538 11.7692C3.06638 11.7692 1 13.8356 1 16.3846C1 18.9336 3.06638 21 5.61538 21Z" stroke="#3C3D46" stroke-width="2" stroke-linecap="round" stroke-linejoin="round"/>
<path d="M27.1538 21C29.7028 21 31.7692 18.9336 31.7692 16.3846C31.7692 13.8356 29.7028 11.7692 27.1538 11.7692C24.6048 11.7692 22.5385 13.8356 22.5385 16.3846C22.5385 18.9336 24.6048 21 27.1538 21Z" stroke="#3C3D46" stroke-width="2" stroke-linecap="round" stroke-linejoin="round"/>
<path d="M9.4615 13.3077L15.6153 7.15384M9.4615 13.3077H17.1538L23.3077 7.15384H7.15381L9.4615 13.3077Z" stroke="#3C3D46" stroke-width="2" stroke-linecap="round" stroke-linejoin="round"/>
<path d="M17.9231 1H21L23.3077 5.61538L26.3846 11.7692" stroke="#3C3D46" stroke-width="2" stroke-linecap="round" stroke-linejoin="round"/>
</svg>
